<?xml version="1.0" standalone="no"?>
<!DOCTYPE svg PUBLIC "-//W3C//DTD SVG 20010904//EN"
 "http://www.w3.org/TR/2001/REC-SVG-20010904/DTD/svg10.dtd">
<svg version="1.0" xmlns="http://www.w3.org/2000/svg"
 width="260.000000pt" height="260.000000pt" viewBox="0 0 260.000000 260.000000"
 preserveAspectRatio="xMidYMid meet">
<metadata>
Created by potrace 1.11, written by Peter Selinger 2001-2013
</metadata>
<g transform="translate(0.000000,260.000000) scale(0.100000,-0.100000)"
fill="#000000" stroke="none">
<path d="M117 2042 c-17 -7 -40 -21 -50 -30 -20 -18 -67 -87 -67 -98 0 -4 25
-31 56 -61 l57 -53 34 40 c59 69 61 59 61 -265 -1 -263 1 -286 19 -317 26 -44
66 -62 138 -62 95 1 170 34 302 130 21 15 22 15 21 -25 0 -37 -5 -44 -57 -83
-166 -125 -267 -270 -275 -396 -11 -153 101 -275 250 -274 143 1 244 103 268
272 7 48 9 317 2 328 -10 18 16 45 99 106 84 62 90 65 97 45 5 -11 18 -30 31
-40 115 -100 276 -81 418 49 60 55 69 60 69 39 0 -22 89 -114 131 -135 29 -14
55 -19 89 -17 139 10 257 148 375 435 21 52 42 99 46 104 15 17 124 -73 161
-132 39 -64 23 -154 -36 -204 -30 -25 -104 -46 -151 -42 -40 3 -41 2 -78 -63
-20 -36 -37 -69 -37 -73 0 -16 84 -28 175 -25 149 5 247 64 304 185 21 45 26
69 25 135 0 67 -5 89 -28 134 -38 74 -115 147 -212 203 -88 51 -162 124 -171
170 -7 34 -19 28 -28 -14 -24 -105 -203 -479 -266 -551 -22 -26 -54 -54 -70
-63 -28 -14 -31 -13 -53 10 -36 35 -51 98 -50 211 1 85 4 108 26 156 14 30 39
71 57 91 17 20 31 40 31 45 0 5 -26 35 -59 67 l-58 57 -30 -30 c-30 -30 -31
-30 -49 -10 -42 47 -85 63 -164 64 -63 0 -84 -5 -128 -28 -66 -35 -128 -91
-188 -170 -54 -72 -82 -132 -118 -251 -25 -81 -33 -95 -86 -148 -32 -32 -62
-58 -67 -58 -5 0 -8 149 -7 330 l1 330 -96 0 -96 0 0 -92 c1 -139 -21 -310
-49 -379 -26 -66 -80 -130 -141 -171 -50 -33 -93 -53 -100 -46 -3 3 -7 124 -9
269 -3 244 -4 267 -23 304 -51 98 -151 137 -246 97z m1375 -179 c55 -63 34
-237 -43 -349 -40 -59 -102 -111 -149 -125 -37 -11 -43 -11 -62 9 -16 16 -22
35 -24 86 -4 110 31 206 110 300 73 87 135 116 168 79z m-798 -911 c-5 -118
-15 -170 -38 -204 -26 -39 -54 -46 -85 -21 -35 29 -39 90 -9 155 29 63 118
165 128 148 4 -6 6 -42 4 -78z"/>
<path d="M1762 1001 c-9 -6 -13 -33 -11 -98 2 -107 15 -132 75 -140 53 -7 94
29 94 82 0 30 -3 35 -24 35 -21 0 -25 -6 -28 -32 -3 -29 -6 -33 -33 -33 l-30
0 -5 94 c-5 92 -12 109 -38 92z"/>
<path d="M2070 900 c0 -108 0 -110 23 -110 19 0 23 5 24 36 0 20 8 43 16 51
14 14 18 11 44 -35 25 -46 32 -52 61 -52 l32 0 -27 43 c-15 23 -36 53 -46 67
-18 24 -18 25 5 45 13 12 32 31 42 43 l19 22 -30 0 c-22 0 -41 -12 -75 -45
l-44 -46 1 46 c2 41 0 45 -22 45 -23 0 -23 -1 -23 -110z"/>
<path d="M2270 998 c0 -7 11 -56 24 -108 21 -88 25 -95 48 -98 24 -3 27 1 44
67 10 39 21 68 24 65 3 -3 12 -33 20 -67 14 -55 19 -62 42 -65 29 -4 29 -4 62
138 20 83 20 80 -9 80 -18 0 -25 -6 -26 -20 -1 -11 -3 -23 -4 -27 -1 -5 -6
-28 -10 -53 l-8 -45 -9 30 c-5 17 -11 41 -14 55 -10 54 -15 60 -44 60 -31 0
-36 -10 -57 -111 -7 -33 -8 -31 -23 36 -14 58 -20 71 -38 73 -13 2 -22 -2 -22
-10z"/>
<path d="M1675 908 c-2 -7 -6 -31 -7 -53 -2 -30 -8 -41 -22 -43 -27 -6 -38 12
-38 57 1 37 -2 41 -24 41 -17 0 -24 -6 -24 -19 0 -20 -18 -40 -35 -39 -16 1
-33 31 -27 46 3 10 -2 13 -19 10 -20 -2 -25 -10 -29 -48 l-5 -45 -69 -3 c-38
-2 -74 2 -79 7 -6 6 -11 27 -11 48 -1 31 -5 39 -23 41 -21 3 -23 0 -23 -46 0
-34 6 -57 19 -73 18 -22 27 -24 111 -24 81 0 94 2 109 21 22 28 78 30 100 3 9
-11 33 -22 54 -24 31 -4 43 0 62 20 21 20 25 34 25 80 0 49 -2 55 -20 55 -11
0 -23 -6 -25 -12z"/>
<path d="M1797 733 c-14 -13 -6 -33 13 -33 13 0 20 7 20 20 0 19 -20 27 -33
13z"/>
<path d="M1856 724 c-9 -23 -8 -24 14 -24 13 0 20 7 20 20 0 24 -25 27 -34 4z"/>
</g>
</svg>
