<svg xmlns="http://www.w3.org/2000/svg" width="629.292" height="383.367" viewBox="0 0 629.292 383.367">
  <g id="Group_11781" data-name="Group 11781" transform="translate(-645.354 -545.266)">
    <g id="Group_11780" data-name="Group 11780">
      <g id="Group_11777" data-name="Group 11777" transform="translate(-0.477 -64.868)">
        <g id="Group_11776" data-name="Group 11776">
          <g id="Group_11775" data-name="Group 11775">
            <g id="Group_11774" data-name="Group 11774">
              <g id="Group_11773" data-name="Group 11773">
                <g id="Group_11772" data-name="Group 11772">
                  <g id="Group_4" data-name="Group 4" transform="translate(637 602)">
                    <g id="Group_3" data-name="Group 3">
                      <path id="Path_11670" data-name="Path 11670" d="M62.75-93.836h38.763V-64.86H62.75V0H27.057V-64.86H-100.169V-85.777L24.946-279.4h37.8Zm-122.621,0H27.057V-230.849l-4.222,7.676Z" transform="translate(109 303)" fill="#fecf08"/>
                      <path id="Path_11669" data-name="Path 11669" d="M62.75-93.836h38.763V-64.86H62.75V0H27.057V-64.86H-100.169V-85.777L24.946-279.4h37.8Zm-122.621,0H27.057V-230.849l-4.222,7.676Z" transform="translate(536.611 303)" fill="#fecf08"/>
                    </g>
                  </g>
                  <g id="Group_10" data-name="Group 10" transform="translate(838.184 610.134)">
                    <path id="Path_16" data-name="Path 16" d="M395.218,229.516a111.277,111.277,0,0,0-67.262-77.286A111.43,111.43,0,0,1,224.436,348.1a111.245,111.245,0,0,0,71.484,18.8l7.211,29.69a15.923,15.923,0,0,0-4.58,15.367L316.4,485.437l.608,2.5,2.958,12.181a18.842,18.842,0,0,0,36.62-8.894l-2.96-12.183-.932-3.835-14.439-59.45-.932-3.835-2.152-8.858a15.917,15.917,0,0,0-11.118-11.553l-6.91-28.454A111.429,111.429,0,0,0,395.218,229.516Z" transform="translate(-152.114 -131.153)" fill="#fecf08" opacity="0.4"/>
                    <path id="Path_17" data-name="Path 17" d="M208.854,292.3A111.413,111.413,0,0,1,372.5,169.3,111.422,111.422,0,1,0,244.651,350.61,110.906,110.906,0,0,1,208.854,292.3Z" transform="translate(-186.64 -140.558)" fill="#afcdea" opacity="0.7"/>
                    <rect id="Rectangle_2" data-name="Rectangle 2" width="21.529" height="82.317" transform="translate(128.7 222.133) rotate(-13.652)" fill="#c4b36a"/>
                    <path id="Path_18" data-name="Path 18" d="M273.319,272.355l-5.655,1.373a15.934,15.934,0,0,0-11.722,19.242l21.414,88.16a18.842,18.842,0,0,0,36.62-8.894l-21.414-88.16A15.933,15.933,0,0,0,273.319,272.355Z" transform="translate(-122.256 -16.087)" fill="#fecf08"/>
                    <path id="Path_19" data-name="Path 19" d="M270.867,272.437l-3.2.777a15.934,15.934,0,0,0-11.722,19.242l21.414,88.16a18.842,18.842,0,0,0,22.758,13.862c.126-.029.245-.077.371-.11Z" transform="translate(-122.256 -15.572)" fill="#c4b36a"/>
                    <g id="Group_5" data-name="Group 5">
                      <path id="Path_20" data-name="Path 20" d="M327.676,364.984a113.345,113.345,0,1,1,83.39-136.894A113.473,113.473,0,0,1,327.676,364.984Zm-50.011-205.9a98.543,98.543,0,1,0,119.017,72.5A98.652,98.652,0,0,0,277.665,159.084Z" transform="translate(-187.565 -141.485)" fill="#5f91d9"/>
                    </g>
                    <path id="Path_21" data-name="Path 21" d="M276.787,263.21,274.1,252.139l-20.922,5.082,2.689,11.069c3.525-.51,7.056-1.173,10.584-2.03S273.421,264.373,276.787,263.21Z" transform="translate(-124.478 -35.089)" fill="#fecf08"/>
                    <g id="Group_6" data-name="Group 6">
                      <path id="Path_22" data-name="Path 22" d="M327.676,364.984a113.345,113.345,0,1,1,83.39-136.894A113.473,113.473,0,0,1,327.676,364.984Zm-50.011-205.9a98.543,98.543,0,1,0,119.017,72.5A98.652,98.652,0,0,0,277.665,159.084Z" transform="translate(-187.565 -141.485)"/>
                    </g>
                    <g id="Group_7" data-name="Group 7" transform="translate(14.804 14.804)" opacity="0.6">
                      <path id="Path_23" data-name="Path 23" d="M270.408,151.827a98.543,98.543,0,1,0,119.017,72.5A98.652,98.652,0,0,0,270.408,151.827Z" transform="translate(-195.112 -149.032)" fill="#dceaf9"/>
                    </g>
                    <g id="Group_9" data-name="Group 9" transform="translate(29.346 33.169)">
                      <g id="Group_8" data-name="Group 8">
                        <path id="Path_24" data-name="Path 24" d="M212.063,264.458a5.92,5.92,0,0,1-7.152-4.355,84.167,84.167,0,0,1,61.854-101.54,5.92,5.92,0,1,1,2.8,11.506,72.315,72.315,0,0,0-53.143,87.239A5.917,5.917,0,0,1,212.063,264.458Z" transform="translate(-202.526 -158.395)" fill="#fff"/>
                      </g>
                    </g>
                    <rect id="Rectangle_3" data-name="Rectangle 3" width="37.684" height="3.947" transform="translate(135.839 285.743) rotate(-13.652)" fill="#fff"/>
                    <rect id="Rectangle_4" data-name="Rectangle 4" width="37.684" height="3.947" transform="translate(151.21 349.028) rotate(-13.652)" fill="#fff"/>
                  </g>
                </g>
              </g>
            </g>
          </g>
        </g>
      </g>
    </g>
  </g>
</svg>
