<svg xmlns="http://www.w3.org/2000/svg" width="103.221" height="60.107" viewBox="0 0 103.221 60.107">
  <g id="Artboard_1" data-name="Artboard 1" transform="translate(-772.32 -197.095)">
    <text id="KW" transform="translate(853.745 246.738)" fill="#fff" font-size="11" font-family="Arial-BoldMT, Arial" font-weight="700"><tspan x="0" y="0">KW</tspan></text>
    <path id="Path_1" data-name="Path 1" d="M1016.745,348.01a1.117,1.117,0,0,1-1.094,1.141h-.7a1.117,1.117,0,0,1-1.094-1.141V341.3H1012v6.71a2.989,2.989,0,0,0,2.963,3.01h.7a2.989,2.989,0,0,0,2.963-3.01v-1.741h-1.869Z" transform="translate(-170.119 -102.354)" fill="#fff"/>
    <path id="Path_2" data-name="Path 2" d="M960.927,353.213v3.192a2.992,2.992,0,0,1-2.966,3.013h-.485a2.933,2.933,0,0,0-4.063-1.741h-.224a2.93,2.93,0,0,0-4.06,1.741h-4.377a2.992,2.992,0,0,1-2.963-3.013V353.68h1.869v2.725a1.12,1.12,0,0,0,1.094,1.143h4.377a1.12,1.12,0,0,0,1.094-1.143v-1.727h0v-1h1.869v.987a1.12,1.12,0,0,0,1.1,1.141h.224a1.12,1.12,0,0,0,1.094-1.138h0v-1.091h0V353.5h1.869v3.018a1.115,1.115,0,0,0,1.088,1.027h.485a1.123,1.123,0,0,0,1.1-1.143V353.21Z" transform="translate(-120.286 -110.807)" fill="#fff"/>
    <rect id="Rectangle_2" data-name="Rectangle 2" width="1.707" height="1.707" rx="0.853" transform="translate(845.807 249.531)" fill="#fff"/>
    <rect id="Rectangle_3" data-name="Rectangle 3" width="1.707" height="1.707" rx="0.853" transform="translate(843.416 249.531)" fill="#fff"/>
    <path id="Path_3" data-name="Path 3" d="M875.52,218.05c-.224-3.964-2.612-7.459-5.685-10.106-2.351-2.014-6.385-3.361-8.489-5.59-1.056-1.117-2.679-3.59-2.847-5.239,0,0-.133.549-.43,1.553a111.348,111.348,0,0,1-9.4,20.725c-3.05,4.234-5.021,4.644-5.14,4.615-2.429-.383-3.628-6.222-3.221-10.878a14.833,14.833,0,0,1,5.018-9.926l-4.995-4.934a19.552,19.552,0,0,0-2.345,2.357,9.176,9.176,0,0,0-2.534-2.255,9.674,9.674,0,0,0-8.08-.726,16.755,16.755,0,0,0-6.965,4.742,27.355,27.355,0,0,0-6.771,12.079h-.02c-1.074,5.114-3.126,6.507-6.571,9.067,0-2.38.02-4.763.035-7.11.023-3.642.041-7.357,0-10.959.136-3.14.084-6.124.049-8.338h-7.575c.078,5.137-.061,14.206-1.791,18.595a15.276,15.276,0,0,1-6.292,7.235,11.35,11.35,0,0,1-3.8,1.68c.023-.2-.061-13.858,0-17.387.035-2.377-.264-5.207-1.869-7.177a7.836,7.836,0,0,0-7.273-2.862c-3.044.488-5.32,3.323-6.208,5.935l4.667,4.443a6.252,6.252,0,0,1,2.775-3.291.724.724,0,0,1,.209.061c.679.421.624,1.866.58,3.84,0,.192-.044,16.276-.023,16.871a7.163,7.163,0,0,0,.435,3.274c.978,2.1,2.653,3.21,5.477,3.21a11.091,11.091,0,0,0,1.741-.142,20.357,20.357,0,0,0,7.494-2.873,22.439,22.439,0,0,0,3.953-3.143c0,1.161,0,2.322.02,3.483-5.3,3.843-12.247,9.368-13.249,16.781a10.561,10.561,0,0,0,2.772,8.556,9.868,9.868,0,0,0,6.8,2.986h.534c5.993,0,10.05-4.542,10.642-11.992a91.212,91.212,0,0,0,.046-10.532c-.032-.911-.064-1.837-.087-2.76l.58-.406c1.161-.821,2.368-1.677,3.515-2.522s2.267-1.7,3.236-2.548a8.594,8.594,0,0,0,2.777,3.422,9.578,9.578,0,0,0,5.442,1.672c3.654,0,7.647-1.968,11.043-5.514a19.122,19.122,0,0,0,1.251-1.451c2.13,4.385,5.453,6.542,7.4,6.849a9.078,9.078,0,0,0,1.466.122c8.086,0,13.466-12.3,17.071-21.961.49.334.978.644,1.451.949,3.152,2.032,6,4.594,5.892,8.44-.131,4.513-5.323,6.965-9.821,5.912l-3.451,5.723a20.853,20.853,0,0,0,6.675.966c3.628,0,7.177-.885,9.8-3.372a12.825,12.825,0,0,0,4.092-10.146Zm-75.771,26.7c-.02.244-.519,6.057-3.416,5.941a2.089,2.089,0,0,1-1.509-.694,4.606,4.606,0,0,1-1.074-3.6c.453-3.352,3.065-6.385,6.109-9.032a68.706,68.706,0,0,1-.11,7.392ZM828.115,221c-2.052,2.148-5.015,3.793-6.428,2.824-.682-.464-1.138-1.715-1.245-3.433a16.5,16.5,0,0,1,1.994-8.948,21.689,21.689,0,0,1,3.245-4.353,9.677,9.677,0,0,1,3.846-2.789,2.923,2.923,0,0,1,.871-.157,1.178,1.178,0,0,1,.65.171c.705.421,1.593,1.782,1.768,4.22a17.161,17.161,0,0,1-4.7,12.471Z" transform="translate(0)" fill="#fff"/>
  </g>
</svg>
