<svg xmlns="http://www.w3.org/2000/svg" width="197.301" height="174.011" viewBox="0 0 197.301 174.011">
  <g id="Group_11818" data-name="Group 11818" transform="translate(-221.643 -15.07)">
    <path id="Path_1" data-name="Path 1" d="M311.429,389.435H475.956L393.692,224.908Z" transform="translate(-70.43 -209.838)"/>
    <g id="Group_45" data-name="Group 45" transform="translate(-106.875 -5062.107)" opacity="0.51">
      <path id="Path_162" data-name="Path 162" d="M588.072,5229.76a2.143,2.143,0,1,0-2.143-2.143A2.141,2.141,0,0,0,588.072,5229.76Z" transform="translate(-171.697 0)" fill="#fff"/>
      <path id="Path_163" data-name="Path 163" d="M588.072,5289.826a2.143,2.143,0,1,0,2.143,2.143A2.144,2.144,0,0,0,588.072,5289.826Z" transform="translate(-171.697 -42.923)" fill="#fff"/>
      <path id="Path_164" data-name="Path 164" d="M523.719,5225.475a2.143,2.143,0,1,0,2.142,2.143A2.143,2.143,0,0,0,523.719,5225.475Z" transform="translate(-128.773 0)" fill="#fff"/>
      <path id="Path_165" data-name="Path 165" d="M523.719,5289.826a2.143,2.143,0,1,0,2.142,2.143A2.144,2.144,0,0,0,523.719,5289.826Z" transform="translate(-128.773 -42.923)" fill="#fff"/>
      <path id="Path_166" data-name="Path 166" d="M459.367,5225.475a2.143,2.143,0,1,0,2.143,2.143A2.144,2.144,0,0,0,459.367,5225.475Z" transform="translate(-85.849 0)" fill="#fff"/>
      <path id="Path_167" data-name="Path 167" d="M459.367,5289.826a2.143,2.143,0,1,0,2.143,2.143A2.144,2.144,0,0,0,459.367,5289.826Z" transform="translate(-85.849 -42.923)" fill="#fff"/>
      <path id="Path_168" data-name="Path 168" d="M395.014,5225.475a2.143,2.143,0,1,0,2.143,2.143A2.143,2.143,0,0,0,395.014,5225.475Z" transform="translate(-42.925 0)" fill="#fff"/>
      <path id="Path_169" data-name="Path 169" d="M395.014,5289.826a2.143,2.143,0,1,0,2.143,2.143A2.144,2.144,0,0,0,395.014,5289.826Z" transform="translate(-42.925 -42.923)" fill="#fff"/>
      <path id="Path_170" data-name="Path 170" d="M330.661,5225.475a2.143,2.143,0,1,0,2.143,2.143A2.144,2.144,0,0,0,330.661,5225.475Z" transform="translate(0 0)" fill="#fff"/>
      <path id="Path_171" data-name="Path 171" d="M330.661,5289.826a2.143,2.143,0,1,0,2.143,2.143A2.145,2.145,0,0,0,330.661,5289.826Z" transform="translate(0 -42.923)" fill="#fff"/>
    </g>
    <g id="Artboard_1" data-name="Artboard 1" transform="translate(-472.32 -120.095)">
      <text id="KW" transform="translate(866.148 255.776)" fill="#fff" font-size="14" font-family="Arial-BoldMT, Arial" font-weight="700"><tspan x="0" y="0">KW</tspan></text>
      <path id="Path_1-2" data-name="Path 1" d="M1017.468,349.032a1.288,1.288,0,0,1-1.261,1.314h-.806a1.287,1.287,0,0,1-1.261-1.314V341.3H1012v7.732a3.445,3.445,0,0,0,3.415,3.468h.806a3.445,3.445,0,0,0,3.414-3.468v-2.007h-2.154Z" transform="translate(-159.523 -95.979)" fill="#fff"/>
      <path id="Path_2" data-name="Path 2" d="M963.842,353.213v3.679a3.448,3.448,0,0,1-3.418,3.471h-.558a3.38,3.38,0,0,0-4.682-2.007h-.258a3.376,3.376,0,0,0-4.679,2.007H945.2a3.448,3.448,0,0,1-3.414-3.471v-3.14h2.154v3.14a1.291,1.291,0,0,0,1.261,1.318h5.043a1.291,1.291,0,0,0,1.261-1.318V354.9h0v-1.157h2.154v1.137a1.291,1.291,0,0,0,1.264,1.314h.258a1.291,1.291,0,0,0,1.261-1.311h0v-1.257h0v-.084H958.6v3.478a1.284,1.284,0,0,0,1.254,1.184h.558a1.294,1.294,0,0,0,1.264-1.318V353.21Z" transform="translate(-112.794 -103.905)" fill="#fff"/>
      <rect id="Rectangle_2" data-name="Rectangle 2" width="1.966" height="1.966" rx="0.983" transform="translate(857.001 257.518)" fill="#fff"/>
      <rect id="Rectangle_3" data-name="Rectangle 3" width="1.966" height="1.966" rx="0.983" transform="translate(854.246 257.518)" fill="#fff"/>
      <path id="Path_3" data-name="Path 3" d="M891.24,221.242c-.258-4.568-3.01-8.595-6.552-11.645-2.709-2.321-7.357-3.873-9.782-6.441-1.217-1.288-3.087-4.137-3.281-6.036,0,0-.154.632-.495,1.789-2.568,8.7-9.434,21.939-10.836,23.882-3.515,4.879-5.786,5.351-5.923,5.317-2.8-.441-4.18-7.17-3.712-12.534a17.093,17.093,0,0,1,5.782-11.438l-5.755-5.685a22.531,22.531,0,0,0-2.7,2.716,10.574,10.574,0,0,0-2.92-2.6,11.147,11.147,0,0,0-9.311-.836,19.308,19.308,0,0,0-8.026,5.465,31.522,31.522,0,0,0-7.8,13.919H819.9c-1.237,5.893-3.6,7.5-7.572,10.448,0-2.742.023-5.488.04-8.194.027-4.2.047-8.478,0-12.628.157-3.619.1-7.057.057-9.608H803.7c.09,5.919-.07,16.37-2.063,21.427a17.6,17.6,0,0,1-7.25,8.337,13.078,13.078,0,0,1-4.378,1.936c.027-.231-.07-15.969,0-20.036.04-2.739-.3-6-2.154-8.27a9.03,9.03,0,0,0-8.381-3.3c-3.508.562-6.13,3.829-7.153,6.839l5.378,5.12c1.194-2.635,2.829-3.709,3.2-3.792a.834.834,0,0,1,.241.07c.783.485.719,2.15.669,4.425,0,.221-.05,18.755-.027,19.44a8.253,8.253,0,0,0,.5,3.772c1.127,2.415,3.057,3.7,6.311,3.7a12.781,12.781,0,0,0,2.007-.164,23.458,23.458,0,0,0,8.635-3.311,25.857,25.857,0,0,0,4.555-3.622c0,1.338,0,2.675.023,4.013-6.11,4.428-14.113,10.8-15.267,19.337a12.17,12.17,0,0,0,3.194,9.859,11.371,11.371,0,0,0,7.832,3.441h.615c6.906,0,11.581-5.234,12.264-13.819A105.093,105.093,0,0,0,812.5,240.4c-.037-1.05-.073-2.117-.1-3.18l.669-.468c1.338-.946,2.729-1.933,4.05-2.906s2.612-1.96,3.729-2.936a9.9,9.9,0,0,0,3.2,3.943,11.036,11.036,0,0,0,6.271,1.926c4.21,0,8.812-2.267,12.725-6.354a22.033,22.033,0,0,0,1.441-1.672c2.455,5.053,6.284,7.538,8.528,7.893a10.462,10.462,0,0,0,1.689.14c9.317,0,15.518-14.177,19.671-25.306.565.385,1.127.742,1.672,1.094,3.632,2.341,6.919,5.294,6.789,9.725-.15,5.2-6.133,8.026-11.317,6.812l-3.976,6.6a24.029,24.029,0,0,0,7.692,1.114c4.18,0,8.271-1.02,11.29-3.886a14.779,14.779,0,0,0,4.716-11.692ZM803.927,252.01c-.023.281-.6,6.98-3.936,6.846a2.408,2.408,0,0,1-1.739-.8,5.308,5.308,0,0,1-1.237-4.15c.522-3.863,3.532-7.357,7.04-10.408a79.159,79.159,0,0,1-.127,8.518Zm32.687-27.367c-2.364,2.475-5.779,4.371-7.408,3.254-.786-.535-1.311-1.976-1.435-3.956a19.009,19.009,0,0,1,2.3-10.311,25,25,0,0,1,3.739-5.016,11.151,11.151,0,0,1,4.431-3.214,3.368,3.368,0,0,1,1-.181,1.357,1.357,0,0,1,.749.2c.813.485,1.836,2.053,2.037,4.863a19.776,19.776,0,0,1-5.414,14.37Z" transform="translate(0)" fill="#fff"/>
    </g>
  </g>
</svg>
