<svg xmlns="http://www.w3.org/2000/svg" width="186.096" height="122.817" viewBox="0 0 186.096 122.817">
  <g id="no-vacancy-signal" transform="translate(0 -48.33)">
    <g id="Group_11790" data-name="Group 11790" transform="translate(0 48.33)">
      <path id="Path_11674" data-name="Path 11674" d="M0,155.828a15.339,15.339,0,0,0,15.319,15.319H170.778A15.337,15.337,0,0,0,186.1,155.828v-52.5A15.337,15.337,0,0,0,170.778,88.01h-5.2V48.33H155.369V88.01H30.729V48.33H20.516V88.01h-5.2A15.338,15.338,0,0,0,0,103.328Zm10.213-52.5a5.112,5.112,0,0,1,5.106-5.106H170.775a5.112,5.112,0,0,1,5.106,5.106v52.5a5.112,5.112,0,0,1-5.106,5.106H15.319a5.112,5.112,0,0,1-5.106-5.106v-52.5Z" transform="translate(0 -48.33)" fill="#fecf08"/>
      <path id="Path_11675" data-name="Path 11675" d="M24.932,177.26h1.943a1.536,1.536,0,0,0,1.533-1.533v-8.171l4.983,8.687a2.137,2.137,0,0,0,1.76,1.018h2.186a1.532,1.532,0,0,0,1.531-1.529V160.113a1.532,1.532,0,0,0-1.531-1.529H35.391a1.531,1.531,0,0,0-1.531,1.529v7.945l-4.811-8.447a2.129,2.129,0,0,0-1.76-1.027H24.932a1.532,1.532,0,0,0-1.533,1.529v15.618A1.534,1.534,0,0,0,24.932,177.26Z" transform="translate(-8.08 -86.404)" fill="#fecf08"/>
      <path id="Path_11676" data-name="Path 11676" d="M57.54,177.458a8.237,8.237,0,0,0,6.149-2.214c1.882-1.775,2.836-4.342,2.836-7.62,0-3.341-.957-5.91-2.809-7.594a8.225,8.225,0,0,0-6.175-2.24,8.229,8.229,0,0,0-6.136,2.2c-1.9,1.722-2.859,4.289-2.859,7.633,0,3.281.96,5.844,2.822,7.593A8.233,8.233,0,0,0,57.54,177.458Zm-3.768-9.841a6.113,6.113,0,0,1,1.065-3.886,3.267,3.267,0,0,1,2.7-1.241,3.215,3.215,0,0,1,2.68,1.241,7.718,7.718,0,0,1,0,7.786,3.23,3.23,0,0,1-2.683,1.233,3.277,3.277,0,0,1-2.325-.837,4.738,4.738,0,0,1-.691-.858A6.786,6.786,0,0,1,53.772,167.617Z" transform="translate(-16.764 -86.13)" fill="#fecf08"/>
      <path id="Path_11677" data-name="Path 11677" d="M91.29,176.039A1.876,1.876,0,0,0,93,177.259h1.988a1.873,1.873,0,0,0,1.705-1.22l5.347-15.688a1.3,1.3,0,0,0-1.265-1.768H98.446a1.816,1.816,0,0,0-1.689,1.267l-2.71,9.388-2.686-9.381a1.807,1.807,0,0,0-1.686-1.273H87.248a1.3,1.3,0,0,0-1.27,1.768Z" transform="translate(-29.663 -86.403)" fill="#fecf08"/>
      <path id="Path_11678" data-name="Path 11678" d="M107.615,176.713a1.326,1.326,0,0,0,1.108.549h2.348a1.86,1.86,0,0,0,1.7-1.23l.811-2.261,4.97.06.705,2.194a1.843,1.843,0,0,0,1.7,1.237h2.484a1.344,1.344,0,0,0,1.112-.545,1.323,1.323,0,0,0,.143-1.227L119.151,159.8a1.866,1.866,0,0,0-1.709-1.207h-2.651a1.886,1.886,0,0,0-1.709,1.207l-5.6,15.694A1.287,1.287,0,0,0,107.615,176.713Zm7.43-7.57,1.015-3.079.991,3.079Z" transform="translate(-37.083 -86.405)" fill="#fecf08"/>
      <path id="Path_11679" data-name="Path 11679" d="M142.449,177.556a7.641,7.641,0,0,0,5.386-1.965,8.389,8.389,0,0,0,2.447-4.275,1.394,1.394,0,0,0-.249-1.186,1.413,1.413,0,0,0-1.127-.529h-2.161a1.843,1.843,0,0,0-1.682,1.22,3.566,3.566,0,0,1-.549,1.07,2.5,2.5,0,0,1-2.114.9,2.788,2.788,0,0,1-2.274-1.1,5.965,5.965,0,0,1-.966-3.75,6.846,6.846,0,0,1,.939-3.93,2.6,2.6,0,0,1,2.294-1.2,2.689,2.689,0,0,1,2.164.8,3.239,3.239,0,0,1,.508.944,1.884,1.884,0,0,0,1.686,1.2h2.187a1.494,1.494,0,0,0,1.144-.529,1.393,1.393,0,0,0,.292-1.15,7.2,7.2,0,0,0-1.223-2.826c-1.463-2.108-3.787-3.178-6.9-3.178a7.85,7.85,0,0,0-5.827,2.35,11.962,11.962,0,0,0-.313,14.485A8.025,8.025,0,0,0,142.449,177.556Z" transform="translate(-46.214 -86.228)" fill="#fecf08"/>
      <path id="Path_11680" data-name="Path 11680" d="M160.772,177.261h2.347a1.864,1.864,0,0,0,1.7-1.23l.811-2.261,4.967.06.7,2.194a1.847,1.847,0,0,0,1.7,1.237h2.484a1.293,1.293,0,0,0,1.256-1.772L171.2,159.8a1.892,1.892,0,0,0-1.712-1.207h-2.65a1.883,1.883,0,0,0-1.708,1.207l-5.6,15.691a1.286,1.286,0,0,0,1.249,1.775Zm6.323-8.119,1.014-3.075.987,3.075Z" transform="translate(-55.056 -86.405)" fill="#fecf08"/>
      <path id="Path_11681" data-name="Path 11681" d="M188.445,177.259h1.942a1.536,1.536,0,0,0,1.533-1.533v-8.171l4.983,8.693a2.155,2.155,0,0,0,1.762,1.011h2.184a1.533,1.533,0,0,0,1.533-1.529V160.112a1.533,1.533,0,0,0-1.533-1.529H198.9a1.529,1.529,0,0,0-1.529,1.529v7.945l-4.814-8.451a2.139,2.139,0,0,0-1.758-1.023h-2.357a1.535,1.535,0,0,0-1.536,1.529v15.618A1.539,1.539,0,0,0,188.445,177.259Z" transform="translate(-64.544 -86.403)" fill="#fecf08"/>
      <path id="Path_11682" data-name="Path 11682" d="M220.529,177.556a7.63,7.63,0,0,0,5.382-1.965,8.328,8.328,0,0,0,2.447-4.278,1.376,1.376,0,0,0-1.373-1.713h-2.168a1.846,1.846,0,0,0-1.682,1.22,3.624,3.624,0,0,1-.545,1.07,2.5,2.5,0,0,1-2.114.9,2.782,2.782,0,0,1-2.274-1.1,5.974,5.974,0,0,1-.964-3.75,6.863,6.863,0,0,1,.938-3.93,2.6,2.6,0,0,1,2.294-1.2,2.681,2.681,0,0,1,2.161.8,3.2,3.2,0,0,1,.509.938,1.877,1.877,0,0,0,1.688,1.207h2.191a1.486,1.486,0,0,0,1.137-.526,1.416,1.416,0,0,0,.3-1.157,7.358,7.358,0,0,0-1.22-2.823c-1.466-2.108-3.787-3.178-6.9-3.178a7.841,7.841,0,0,0-5.824,2.35,11.97,11.97,0,0,0-.319,14.485A8.021,8.021,0,0,0,220.529,177.556Z" transform="translate(-73.178 -86.228)" fill="#fecf08"/>
      <path id="Path_11683" data-name="Path 11683" d="M242.711,169.857a2.384,2.384,0,0,1,.223.864v5.006a1.533,1.533,0,0,0,1.533,1.529h2.184a1.533,1.533,0,0,0,1.533-1.529v-5.006a2.4,2.4,0,0,1,.219-.878l5.04-9.418a1.217,1.217,0,0,0-1.114-1.849h-2.656a2,2,0,0,0-1.742,1.117l-2.334,5.113-2.447-5.137a2.011,2.011,0,0,0-1.741-1.093h-2.82a1.208,1.208,0,0,0-1.1,1.858Z" transform="translate(-81.949 -86.401)" fill="#fecf08"/>
    </g>
  </g>
</svg>
