<svg id="date" xmlns="http://www.w3.org/2000/svg" width="13.728" height="13.728" viewBox="0 0 13.728 13.728">
  <g id="Group_1838" data-name="Group 1838" transform="translate(2.942)">
    <g id="Group_1837" data-name="Group 1837">
      <path id="Path_11606" data-name="Path 11606" d="M102.89,0a.49.49,0,0,0-.49.49v.981h.981V.49A.49.49,0,0,0,102.89,0Z" transform="translate(-102.4)" fill="#7c7c7c"/>
    </g>
  </g>
  <g id="Group_1840" data-name="Group 1840" transform="translate(9.806)">
    <g id="Group_1839" data-name="Group 1839">
      <path id="Path_11607" data-name="Path 11607" d="M341.823,0a.49.49,0,0,0-.49.49v.981h.981V.49A.49.49,0,0,0,341.823,0Z" transform="translate(-341.333)" fill="#7c7c7c"/>
    </g>
  </g>
  <g id="Group_1842" data-name="Group 1842" transform="translate(0 1.471)">
    <g id="Group_1841" data-name="Group 1841">
      <path id="Path_11608" data-name="Path 11608" d="M12.257,51.2H10.787v1.961a.49.49,0,1,1-.981,0V51.2H3.922v1.961a.49.49,0,1,1-.981,0V51.2H1.471A1.471,1.471,0,0,0,0,52.671v9.316a1.471,1.471,0,0,0,1.471,1.471H12.257a1.471,1.471,0,0,0,1.471-1.471V52.671A1.471,1.471,0,0,0,12.257,51.2Zm.49,10.787a.49.49,0,0,1-.49.49H1.471a.49.49,0,0,1-.49-.49V55.613H12.748Z" transform="translate(0 -51.2)" fill="#7c7c7c"/>
    </g>
  </g>
  <g id="Group_1844" data-name="Group 1844" transform="translate(3.432 6.864)">
    <g id="Group_1843" data-name="Group 1843">
      <path id="Path_11609" data-name="Path 11609" d="M126.183,239.082a.49.49,0,0,0-.694,0l-3.576,3.576-1.615-1.615a.49.49,0,1,0-.693.694l1.961,1.961a.49.49,0,0,0,.693,0l3.922-3.922A.49.49,0,0,0,126.183,239.082Z" transform="translate(-119.463 -238.938)" fill="#7c7c7c"/>
    </g>
  </g>
</svg>
