<svg xmlns="http://www.w3.org/2000/svg" width="88.366" height="89.291" viewBox="0 0 88.366 89.291">
  <g id="search-magnifier-with-a-cross" transform="translate(-3.069)">
    <g id="Group_11792" data-name="Group 11792" transform="translate(3.069 0)">
      <path id="Path_11684" data-name="Path 11684" d="M6.34,49.442A35.259,35.259,0,0,0,52.511,68.185q1.093-.462,2.145-.995L74.395,86.929a9.257,9.257,0,0,0,13.092,0l1.591-1.591a9.268,9.268,0,0,0,0-13.092L69.623,52.791A35.225,35.225,0,1,0,6.34,49.442Zm54.989,4.182A28.677,28.677,0,1,1,64.83,48,28.941,28.941,0,0,1,61.329,53.624ZM84.514,76.81a2.8,2.8,0,0,1,0,3.965l-1.591,1.591a2.8,2.8,0,0,1-3.965,0l-18.7-18.7a35.5,35.5,0,0,0,3.448-3.028q1.167-1.166,2.211-2.425Z" transform="translate(-3.494 -0.425)" fill="#fecf08"/>
      <path id="Path_11685" data-name="Path 11685" d="M80.516,89.291a9.272,9.272,0,0,1-6.6-2.734l-19.7-19.7c-.7.351-1.4.678-2.1.972A35.311,35.311,0,0,1,24.629,2.777,35.319,35.319,0,0,1,70.9,49.047a35.47,35.47,0,0,1-1.608,3.306L88.707,71.768a9.343,9.343,0,0,1,0,13.2l-1.591,1.591A9.272,9.272,0,0,1,80.516,89.291ZM54.246,66.674,74.023,86.451a9.182,9.182,0,0,0,12.985,0L88.6,84.86a9.192,9.192,0,0,0,0-12.985l-19.5-19.5.028-.05a35.4,35.4,0,0,0,1.628-3.342A35.16,35.16,0,0,0,5.985,21.618,35.168,35.168,0,0,0,52.058,67.691c.709-.3,1.429-.634,2.14-.992Zm26.27,16.163a2.86,2.86,0,0,1-2.036-.843L59.72,63.234l.068-.052a35.591,35.591,0,0,0,3.441-3.021c.765-.765,1.507-1.579,2.206-2.42l.053-.064L84.143,76.332a2.882,2.882,0,0,1,0,4.071l-1.591,1.591A2.86,2.86,0,0,1,80.516,82.837ZM59.948,63.248,78.587,81.887a2.729,2.729,0,0,0,3.858,0L84.037,80.3a2.731,2.731,0,0,0,0-3.858L65.5,57.9c-.686.822-1.414,1.618-2.162,2.367A35.739,35.739,0,0,1,59.948,63.248Zm-21.576.9A28.735,28.735,0,1,1,49.4,61.97,28.882,28.882,0,0,1,38.372,64.153Zm0-57.549A28.687,28.687,0,1,0,64.337,47.541,28.443,28.443,0,0,0,67.071,35.3,28.732,28.732,0,0,0,38.372,6.6Z" transform="translate(-3.069 0)" fill="#fecf08"/>
    </g>
    <g id="Group_11793" data-name="Group 11793" transform="translate(25.391 22.266)">
      <path id="Path_11686" data-name="Path 11686" d="M176.724,149.244a3.227,3.227,0,0,0-4.563,0l-7.454,7.454-7.453-7.454a3.227,3.227,0,0,0-4.563,4.564l7.454,7.453-7.454,7.453a3.227,3.227,0,0,0,4.563,4.563l7.453-7.453,1.327,1.327,4.563,4.563,1.563,1.563a3.227,3.227,0,0,0,4.563-4.563l-1.56-1.56-4.564-4.563-1.33-1.33,7.453-7.453A3.227,3.227,0,0,0,176.724,149.244Z" transform="translate(-151.669 -148.224)" fill="#fecf08"/>
      <path id="Path_11687" data-name="Path 11687" d="M174.015,173.874a3.281,3.281,0,0,1-2.335-.967l-7.4-7.4-7.4,7.4a3.3,3.3,0,0,1-4.67-4.67l7.4-7.4-7.4-7.4a3.3,3.3,0,1,1,4.67-4.67l7.4,7.4,7.4-7.4a3.3,3.3,0,0,1,4.67,4.67l-7.4,7.4,7.4,7.4a3.3,3.3,0,0,1-2.335,5.637Zm-9.735-8.58,7.507,7.507a3.152,3.152,0,0,0,4.457-4.457l-7.507-7.507,7.507-7.507a3.152,3.152,0,0,0-4.457-4.457l-7.507,7.507-7.507-7.507a3.152,3.152,0,0,0-4.457,4.457l7.507,7.507-7.507,7.507a3.152,3.152,0,0,0,4.457,4.457Z" transform="translate(-151.242 -147.799)" fill="#fecf08"/>
    </g>
  </g>
</svg>
