<svg id="Group_41" data-name="Group 41" xmlns="http://www.w3.org/2000/svg" width="79.935" height="78.736" viewBox="0 0 79.935 78.736">
  <g id="Group_40" data-name="Group 40">
    <path id="Path_150" data-name="Path 150" d="M1437.243,5449.786l11.092,11.092,1.826,1.826,3.633,3.63v-3.653l-1.806-1.8-1.828-1.827-11.091-11.091-1.826-1.828-9.286-9.287v3.653l7.46,7.461Z" transform="translate(-1427.957 -5387.598)" fill="#fecf08"/>
    <path id="Path_151" data-name="Path 151" d="M1437.243,5373.22l11.092,11.092,1.826,1.828,3.633,3.629v-3.653l-1.806-1.8-1.828-1.827-11.091-11.09-1.826-1.828-9.286-9.288v3.654l7.46,7.461Z" transform="translate(-1427.957 -5323.952)" fill="#fecf08"/>
    <path id="Path_152" data-name="Path 152" d="M1437.243,5296.658l11.092,11.092,1.826,1.827,3.633,3.632v-3.654l-1.806-1.8-1.828-1.825-11.091-11.092-1.826-1.828-9.286-9.287v3.654l7.46,7.461Z" transform="translate(-1427.957 -5260.309)" fill="#fecf08"/>
    <path id="Path_153" data-name="Path 153" d="M1437.243,5220.1l11.092,11.091,1.826,1.827,3.633,3.632v-3.655l-1.806-1.8-1.828-1.827-11.091-11.091-1.826-1.825-9.286-9.289v3.653l7.46,7.461Z" transform="translate(-1427.957 -5196.666)" fill="#fecf08"/>
    <path id="Path_154" data-name="Path 154" d="M1457.585,5170.286h1.884l-3.7-3.7-1.828-1.826-11.091-11.093-1.827-1.826-6.861-6.86h-1.658v1.993l6.692,6.693,1.827,1.827,11.092,11.092,1.826,1.827,3.633,3.63v-1.226h.01Z" transform="translate(-1431.739 -5144.982)" fill="#fecf08"/>
    <path id="Path_155" data-name="Path 155" d="M1507.755,5155.5l11.093,11.092,1.826,1.827,2.405,2.4h3.654l-4.232-4.231-1.827-1.826-11.091-11.093-1.827-1.826-6.86-6.86h-3.653l8.688,8.687Z" transform="translate(-1485.551 -5144.982)" fill="#fecf08"/>
    <path id="Path_156" data-name="Path 156" d="M1584.32,5155.5l11.092,11.092,1.827,1.827,2.4,2.4h3.653l-4.232-4.231-1.826-1.826-11.092-11.093-1.827-1.826-6.86-6.86h-3.653l8.687,8.687Z" transform="translate(-1549.198 -5144.982)" fill="#fecf08"/>
    <path id="Path_157" data-name="Path 157" d="M1660.88,5155.5l11.092,11.092,1.826,1.827,2.405,2.4h3.653l-4.231-4.231-1.827-1.826-11.092-11.093-1.826-1.826-6.86-6.86h-3.654l8.687,8.687Z" transform="translate(-1612.839 -5144.982)" fill="#fecf08"/>
    <path id="Path_158" data-name="Path 158" d="M1737.443,5155.5l11.092,11.092,1.827,1.827,2.4,2.4h3.653l-4.231-4.231-1.827-1.826-11.091-11.093-1.827-1.826-6.86-6.86h-3.653l8.687,8.687Z" transform="translate(-1676.484 -5144.982)" fill="#fecf08"/>
  </g>
</svg>
