<svg xmlns="http://www.w3.org/2000/svg" width="36.837" height="29.822" viewBox="0 0 36.837 29.822">
  <g id="noun_destination_3081161" transform="translate(0)">
    <g id="Group_1824" data-name="Group 1824" transform="translate(0)">
      <path id="Path_11592" data-name="Path 11592" d="M110.832,166.531v19.777l6.372,2.277v-6.017l1.135-.613,1.135.614v6.016l6.372-2.277V166.531l-6.372-2.277v5.415a2.067,2.067,0,0,0-2.27-.031v-5.384Zm8.58,4.456a1.133,1.133,0,0,0-2.119-.073c-1.257,3.144-2.352,6.952-3.455,10.217a1.133,1.133,0,0,0,1.608,1.355l2.892-1.563,2.891,1.564a1.134,1.134,0,0,0,1.609-1.357Zm-1.073,3.893,1.435,4.245c-1.546-.835-1.324-.835-2.869,0Zm-8.642,13.43-8.261,2.952a1.135,1.135,0,0,1-1.515-1.068V162.644a1.137,1.137,0,0,1,1.566-1.05l8.211,2.935,8.2-2.931a1.145,1.145,0,0,1,.765-.042c2.382.6,5.865,2.1,8.319,2.973l8.261-2.952a1.135,1.135,0,0,1,1.515,1.068V190.2a1.137,1.137,0,0,1-1.566,1.05l-8.211-2.935-8.256,2.951a1.136,1.136,0,0,1-.767,0Zm-1.135-21.779-6.372-2.277v24.331l6.372-2.277Zm19.554,0v19.777l6.372,2.277V164.254Z" transform="translate(-99.92 -161.509)"/>
    </g>
  </g>
</svg>
