<svg id="Group_1825" data-name="Group 1825" xmlns="http://www.w3.org/2000/svg" width="36.837" height="36.837" viewBox="0 0 36.837 36.837">
  <path id="Path_11597" data-name="Path 11597" d="M43.559,30.774,39.6,29.261a1.778,1.778,0,0,1-.659-2.908,1.724,1.724,0,0,1,1.28-.5h1.551a1.746,1.746,0,0,1,1.706,1.28,1.591,1.591,0,0,0,1.978,1.086,1.562,1.562,0,0,0,1.086-1.978,4.93,4.93,0,0,0-3.955-3.529V21.39a1.59,1.59,0,1,0-3.18,0v1.357A5.057,5.057,0,0,0,36.735,24.1a4.947,4.947,0,0,0,1.745,8.1l3.955,1.512a1.781,1.781,0,0,1-.62,3.451H40.263a1.746,1.746,0,0,1-1.706-1.28,1.6,1.6,0,1,0-3.063.892,4.934,4.934,0,0,0,3.916,3.529v1.318a1.59,1.59,0,0,0,3.18,0V40.313a4.971,4.971,0,0,0,.969-9.539Z" transform="translate(-22.581 -13.092)"/>
  <path id="Path_11598" data-name="Path 11598" d="M20.919,2.5A18.419,18.419,0,1,0,39.337,20.919,18.435,18.435,0,0,0,20.919,2.5Zm0,33.658A15.239,15.239,0,1,1,36.158,20.919,15.241,15.241,0,0,1,20.919,36.158Z" transform="translate(-2.5 -2.5)"/>
</svg>
