<svg xmlns="http://www.w3.org/2000/svg" width="36.837" height="31.031" viewBox="0 0 36.837 31.031">
  <g id="noun_Travel_1256331" transform="translate(0)">
    <path id="Path_11599" data-name="Path 11599" d="M40.548,20.969H34.237v-1.8a3.606,3.606,0,0,0-3.606-3.606H24.446a3.606,3.606,0,0,0-3.606,3.606v1.8H14.529A5.409,5.409,0,0,0,9.12,26.379v14.8a5.409,5.409,0,0,0,5.409,5.409H40.548a5.409,5.409,0,0,0,5.409-5.409v-14.8A5.409,5.409,0,0,0,40.548,20.969Zm-17.9-1.8a1.8,1.8,0,0,1,1.8-1.8h6.2a1.8,1.8,0,0,1,1.8,1.8v1.8H22.643Zm-5.409,25.6h-2.7a3.606,3.606,0,0,1-3.606-3.606V26.379a3.606,3.606,0,0,1,3.606-3.606h2.7Zm18.824,0H19.037v-22H36.058Zm8.114-3.606a3.606,3.606,0,0,1-3.606,3.606h-2.7v-22h2.7a3.606,3.606,0,0,1,3.606,3.606Z" transform="translate(-9.12 -15.56)"/>
  </g>
</svg>
